# xmcd CD database file
#
# Track frame offsets:
#	150
#	18415
#	37342
#	50805
#	70936
#	92192
#	110057
#	130047
#	148511
#	166449
#	186574
#	207676
#	229075
#	249551
#	267970
#	286358
#	306619
#
# Disc length: 4335 seconds
#
# Revision: 0
# Processed by: cddbd v1.5.1PL0 Copyright (c) Steve Scherf et al.
# Submitted via: CDex 1.51
#
DISCID=1710ed11
DTITLE=Sampler - UN CHIN DE TO´
DYEAR=2004
DGENRE=Merengue
TTITLE0=Ramon Orlando y Milly Quezada - Yo soy
TTITLE1=Yoskar Sarante - Un mal necasario
TTITLE2=Magic Juan - Mil horas
TTITLE3=Monchy y Alexandra - Perdidos
TTITLE4=El Prodigio - Pa´ guera
TTITLE5=Frank Reyes - Viviendo en la soledad
TTITLE6=Kinito Méndez - Hony
TTITLE7=Zacarias Ferreira - No te vayas
TTITLE8=Papi Sanchez - Mi primera dama
TTITLE9=Domenic Marte - Ven Tú
TTITLE10=Eddy Herrera y Magic Juan - Para Siempre
TTITLE11=Sexappeal - Payaso de zu amor
TTITLE12=Rikarena - Quien me va a querer
TTITLE13=Daniel Monción - Y por tanto
TTITLE14=Miguel Angel - Amar
TTITLE15=Nicol Pena - No cabe olvido
TTITLE16=Monchy y Alexandra - Perdidos (Balada)
EXTD=YEAR: 2004
EXTT0=
EXTT1=
EXTT2=
EXTT3=
EXTT4=
EXTT5=
EXTT6=
EXTT7=
EXTT8=
EXTT9=
EXTT10=
EXTT11=
EXTT12=
EXTT13=
EXTT14=
EXTT15=
EXTT16=
PLAYORDER=
